<svg xmlns="http://www.w3.org/2000/svg" version="1.1" xmlns:xlink="http://www.w3.org/1999/xlink" xmlns:svgjs="http://svgjs.dev/svgjs" viewBox="0 0 1422 800"><defs><linearGradient x1="50%" y1="0%" x2="50%" y2="100%" id="oooscillate-grad"><stop stop-color="hsl(340, 45%, 50%)" stop-opacity="1" offset="0%"></stop><stop stop-color="hsl(340, 45%, 80%)" stop-opacity="1" offset="100%"></stop></linearGradient></defs><g stroke-width="1" stroke="url(#oooscillate-grad)" fill="none" stroke-linecap="round"><path d="M 0 392 Q 355.5 -100 711 400 Q 1066.5 900 1422 392" opacity="0.86"></path><path d="M 0 343 Q 355.5 -100 711 400 Q 1066.5 900 1422 343" opacity="0.39"></path><path d="M 0 294 Q 355.5 -100 711 400 Q 1066.5 900 1422 294" opacity="0.59"></path><path d="M 0 245 Q 355.5 -100 711 400 Q 1066.5 900 1422 245" opacity="0.68"></path><path d="M 0 196 Q 355.5 -100 711 400 Q 1066.5 900 1422 196" opacity="0.54"></path><path d="M 0 147 Q 355.5 -100 711 400 Q 1066.5 900 1422 147" opacity="0.88"></path><path d="M 0 98 Q 355.5 -100 711 400 Q 1066.5 900 1422 98" opacity="0.61"></path></g></svg>