
<svg width="1252" height="2424" viewBox="0 0 1252 2424" fill="none" xmlns="http://www.w3.org/2000/svg">
<path d="M1252 575.843H1238.2V211.102C1238.2 183.38 1232.55 155.929 1221.55 130.317C1210.56 104.705 1194.45 81.4332 1174.14 61.8305C1153.82 42.2279 1129.71 26.6781 1103.17 16.0692C1076.63 5.46035 1048.19 1.91704e-05 1019.46 4.54918e-10H218.742C160.728 -0.000116146 105.09 22.2408 64.0683 61.8301C23.0462 101.419 0.000133722 155.114 0 211.102V2212.1C-2.67444e-05 2268.09 23.0458 2321.78 64.0679 2361.37C105.09 2400.96 160.728 2423.2 218.742 2423.2H1019.46C1048.19 2423.2 1076.63 2417.74 1103.17 2407.13C1129.71 2396.52 1153.82 2380.97 1174.14 2361.37C1194.45 2341.77 1210.56 2318.5 1221.55 2292.89C1232.55 2267.27 1238.2 2239.82 1238.2 2212.1V835.472H1252V575.843Z" fill="#F4ECEE"/>
<path d="M1028.29 54.0003H923.767C928.574 65.373 930.408 77.7119 929.11 89.9301C927.811 102.148 923.419 113.871 916.32 124.065C909.221 134.259 899.634 142.612 888.402 148.388C877.17 154.164 864.639 157.185 851.912 157.186H393.19C380.463 157.185 367.932 154.164 356.7 148.388C345.468 142.612 335.88 134.259 328.781 124.065C321.682 113.871 317.29 102.148 315.991 89.9299C314.693 77.7117 316.528 65.3727 321.334 54H223.712C180.388 54 138.838 70.6093 108.203 100.174C77.5685 129.739 60.3579 169.837 60.3579 211.649V2209.71C60.3579 2230.41 64.5831 2250.91 72.7924 2270.04C81.0017 2289.17 93.0343 2306.55 108.203 2321.18C123.372 2335.82 141.38 2347.44 161.199 2355.36C181.018 2363.28 202.26 2367.36 223.712 2367.36H1028.29C1049.74 2367.36 1070.98 2363.28 1090.8 2355.36C1110.62 2347.44 1128.63 2335.82 1143.8 2321.19C1158.97 2306.55 1171 2289.17 1179.21 2270.04C1187.42 2250.91 1191.64 2230.41 1191.64 2209.71V211.649C1191.64 190.946 1187.42 170.446 1179.21 151.319C1171 132.192 1158.97 114.813 1143.8 100.174C1128.63 85.5354 1110.62 73.923 1090.8 66.0005C1070.98 58.0779 1049.74 54.0003 1028.29 54.0003Z" fill="white"/>
</svg>